<svg width="891" height="706" fill="none" xmlns="http://www.w3.org/2000/svg"><path d="M348.825 307.287l-41.571 49.539 49.538 41.571 41.571-49.539-49.538-41.571z" stroke="url(#paint0_linear)" stroke-miterlimit="10"/><path d="M368.484 296.198l-72.236 40.878 40.878 72.236 72.236-40.878-40.878-72.236z" stroke="url(#paint1_linear)" stroke-miterlimit="10"/><path d="M388.154 285.139l-102.905 32.22 32.22 102.906 102.906-32.221-32.221-102.905z" stroke="url(#paint2_linear)" stroke-miterlimit="10"/><path d="M407.796 274.274L274.221 297.82l23.546 133.576 133.576-23.547-23.547-133.575z" stroke="url(#paint3_linear)" stroke-miterlimit="10"/><path d="M405.972 267.966l-135.79 32.711 32.711 135.79 135.79-32.711-32.711-135.79z" stroke="url(#paint4_linear)" stroke-miterlimit="10"/><path d="M404.084 261.605l-137.995 41.878 41.879 137.996L445.963 399.6l-41.879-137.995z" stroke="url(#paint5_linear)" stroke-miterlimit="10"/><path d="M402.202 255.446l-140.205 51.027 51.027 140.205 140.205-51.027-51.027-140.205z" stroke="url(#paint6_linear)" stroke-miterlimit="10"/><path d="M395.713 250.434L254.87 311.813l61.38 140.843 140.842-61.38-61.379-140.842z" stroke="url(#paint7_linear)" stroke-miterlimit="10"/><path d="M389.353 245.622l-141.499 71.717 71.717 141.5 141.5-71.718-71.718-141.499z" stroke="url(#paint8_linear)" stroke-miterlimit="10"/><path d="M382.824 240.665l-142.133 82.063 82.063 142.132 142.132-82.063-82.062-142.132z" stroke="url(#paint9_linear)" stroke-miterlimit="10"/><path d="M376.626 235.668L235.76 329.061l93.392 140.865 140.866-93.392-93.392-140.866z" stroke="url(#paint10_linear)" stroke-miterlimit="10"/><path d="M370.23 230.666L230.653 335.379l104.714 139.577 139.577-104.713L370.23 230.666z" stroke="url(#paint11_linear)" stroke-miterlimit="10"/><path d="M363.897 225.561l-138.293 116.05 116.051 138.293 138.292-116.05-116.05-138.293z" stroke="url(#paint12_linear)" stroke-miterlimit="10"/><path d="M356.1 221.385l-134.744 128.07 128.07 134.744 134.743-128.07L356.1 221.385z" stroke="url(#paint13_linear)" stroke-miterlimit="10"/><path d="M348.312 217.122l-131.194 140.1 140.101 131.194 131.194-140.1-140.101-131.194z" stroke="url(#paint14_linear)" stroke-miterlimit="10"/><path d="M340.576 212.96L212.921 365.081l152.122 127.655 127.654-152.121L340.576 212.96z" stroke="url(#paint15_linear)" stroke-miterlimit="10"/><path d="M331.335 209.821l-121.51 164.474 164.474 121.51L495.81 331.331l-164.475-121.51z" stroke="url(#paint16_linear)" stroke-miterlimit="10"/><path d="M322.069 206.706L206.705 383.532l176.826 115.364L498.895 322.07 322.069 206.706z" stroke="url(#paint17_linear)" stroke-miterlimit="10"/><path d="M312.828 203.609L203.603 392.787l189.178 109.225 109.225-189.178-189.178-109.225z" stroke="url(#paint18_linear)" stroke-miterlimit="10"/><path d="M302.248 201.958L202.036 403.35l201.391 100.212L503.639 302.17 302.248 201.958z" stroke="url(#paint19_linear)" stroke-miterlimit="10"/><path d="M291.671 200.362l-91.205 213.602 213.603 91.206 91.205-213.603-213.603-91.205z" stroke="url(#paint20_linear)" stroke-miterlimit="10"/><path d="M280.989 198.764l-82.18 225.801 225.801 82.18 82.18-225.801-225.801-82.18z" stroke="url(#paint21_linear)" stroke-miterlimit="10"/><path d="M269.248 199.157l-70.1 237.296 237.295 70.1 70.1-237.296-237.295-70.1z" stroke="url(#paint22_linear)" stroke-miterlimit="10"/><path d="M257.409 199.365l-57.992 248.806 248.806 57.992 57.992-248.805-248.806-57.993z" stroke="url(#paint23_linear)" stroke-miterlimit="10"/><path d="M245.546 199.664L199.66 459.97l260.305 45.886 45.887-260.305-260.306-45.887z" stroke="url(#paint24_linear)" stroke-miterlimit="10"/><path d="M233.575 201.606l-30.593 270.465 270.465 30.593 30.593-270.465-270.465-30.593z" stroke="url(#paint25_linear)" stroke-miterlimit="10"/><path d="M221.488 203.664L206.2 484.267l280.603 15.287 15.287-280.602-280.602-15.288z" stroke="url(#paint26_linear)" stroke-miterlimit="10"/><path d="M500.28 205.657H209.522v290.758H500.28V205.657z" stroke="url(#paint27_linear)" stroke-miterlimit="10"/><path d="M494.368 192.998L195.539 211.5l18.503 298.829 298.829-18.503-18.503-298.828z" stroke="url(#paint28_linear)" stroke-miterlimit="10"/><path d="M488.46 180.199l-306.899 37.033 37.033 306.9 306.9-37.034-37.034-306.899z" stroke="url(#paint29_linear)" stroke-miterlimit="10"/><path d="M482.503 167.592l-314.969 55.523 55.522 314.969 314.969-55.523-55.522-314.969z" stroke="url(#paint30_linear)" stroke-miterlimit="10"/><path d="M474.362 154.139l-320.187 77.132 77.132 320.187 320.187-77.132-77.132-320.187z" stroke="url(#paint31_linear)" stroke-miterlimit="10"/><path d="M466.142 140.644l-325.381 98.747 98.746 325.381 325.382-98.747-98.747-325.381z" stroke="url(#paint32_linear)" stroke-miterlimit="10"/><path d="M457.958 127.349l-330.599 120.32 120.32 330.598 330.599-120.32-120.32-330.598z" stroke="url(#paint33_linear)" stroke-miterlimit="10"/><path d="M446.464 114.298L114.367 259.027l144.729 332.097 332.097-144.728-144.729-332.098z" stroke="url(#paint34_linear)" stroke-miterlimit="10"/><path d="M435.134 101.44L101.491 270.543l169.103 333.644 333.644-169.103L435.134 101.44z" stroke="url(#paint35_linear)" stroke-miterlimit="10"/><path d="M423.613 88.442L88.473 281.941l193.499 335.14 335.14-193.499-193.499-335.14z" stroke="url(#paint36_linear)" stroke-miterlimit="10"/><path d="M408.858 76.619L76.706 296.832l220.212 332.152 332.153-220.213L408.858 76.619z" stroke="url(#paint37_linear)" stroke-miterlimit="10"/><path d="M393.901 64.804L64.787 311.71l246.908 329.114 329.114-246.907L393.901 64.804z" stroke="url(#paint38_linear)" stroke-miterlimit="10"/><path d="M378.995 52.875L52.914 326.51l273.635 326.081L652.63 378.956 378.995 52.875z" stroke="url(#paint39_linear)" stroke-miterlimit="10"/><path d="M360.631 42.942L42.913 344.923l301.981 317.718L662.612 360.66 360.631 42.942z" stroke="url(#paint40_linear)" stroke-miterlimit="10"/><path d="M342.261 32.922L32.915 363.268l330.346 309.346 309.346-330.346L342.261 32.922z" stroke="url(#paint41_linear)" stroke-miterlimit="10"/><path d="M323.964 23l-301 358.691 358.69 301.001 301.001-358.691-358.691-301z" stroke="url(#paint42_linear)" stroke-miterlimit="10"/><path d="M302.164 15.647L15.647 403.472l387.825 286.516 286.516-387.824L302.164 15.647z" stroke="url(#paint43_linear)" stroke-miterlimit="10"/><path d="M280.336 8.31L8.311 425.26l416.95 272.026 272.026-416.951L280.336 8.309z" stroke="url(#paint44_linear)" stroke-miterlimit="10"/><path d="M258.547 1L1 447.071l446.07 257.546 257.547-446.07L258.547 1z" stroke="url(#paint45_linear)" stroke-miterlimit="10"/><path d="M533.825 307.287l-41.571 49.539 49.538 41.571 41.571-49.539-49.538-41.571z" stroke="url(#paint46_linear)" stroke-miterlimit="10"/><path d="M553.484 296.198l-72.236 40.878 40.878 72.236 72.236-40.878-40.878-72.236z" stroke="url(#paint47_linear)" stroke-miterlimit="10"/><path d="M573.154 285.139l-102.905 32.22 32.22 102.906 102.906-32.221-32.221-102.905z" stroke="url(#paint48_linear)" stroke-miterlimit="10"/><path d="M592.796 274.274L459.221 297.82l23.546 133.576 133.576-23.547-23.547-133.575z" stroke="url(#paint49_linear)" stroke-miterlimit="10"/><path d="M590.972 267.966l-135.79 32.711 32.711 135.79 135.79-32.711-32.711-135.79z" stroke="url(#paint50_linear)" stroke-miterlimit="10"/><path d="M589.084 261.605l-137.995 41.878 41.879 137.996L630.963 399.6l-41.879-137.995z" stroke="url(#paint51_linear)" stroke-miterlimit="10"/><path d="M587.202 255.446l-140.205 51.027 51.027 140.205 140.205-51.027-51.027-140.205z" stroke="url(#paint52_linear)" stroke-miterlimit="10"/><path d="M580.713 250.434L439.87 311.813l61.38 140.843 140.842-61.38-61.379-140.842z" stroke="url(#paint53_linear)" stroke-miterlimit="10"/><path d="M574.353 245.622l-141.499 71.717 71.717 141.5 141.5-71.718-71.718-141.499z" stroke="url(#paint54_linear)" stroke-miterlimit="10"/><path d="M567.824 240.665l-142.133 82.063 82.063 142.132 142.132-82.063-82.062-142.132z" stroke="url(#paint55_linear)" stroke-miterlimit="10"/><path d="M561.626 235.668L420.76 329.061l93.392 140.865 140.866-93.392-93.392-140.866z" stroke="url(#paint56_linear)" stroke-miterlimit="10"/><path d="M555.23 230.666L415.653 335.379l104.714 139.577 139.577-104.713L555.23 230.666z" stroke="url(#paint57_linear)" stroke-miterlimit="10"/><path d="M548.897 225.561l-138.293 116.05 116.051 138.293 138.292-116.05-116.05-138.293z" stroke="url(#paint58_linear)" stroke-miterlimit="10"/><path d="M541.1 221.385l-134.744 128.07 128.07 134.744 134.743-128.07L541.1 221.385z" stroke="url(#paint59_linear)" stroke-miterlimit="10"/><path d="M533.312 217.122l-131.194 140.1 140.101 131.194 131.194-140.1-140.101-131.194z" stroke="url(#paint60_linear)" stroke-miterlimit="10"/><path d="M525.576 212.96L397.921 365.081l152.122 127.655 127.654-152.121L525.576 212.96z" stroke="url(#paint61_linear)" stroke-miterlimit="10"/><path d="M516.335 209.821l-121.51 164.474 164.474 121.51L680.81 331.331l-164.475-121.51z" stroke="url(#paint62_linear)" stroke-miterlimit="10"/><path d="M507.069 206.706L391.705 383.532l176.826 115.364L683.895 322.07 507.069 206.706z" stroke="url(#paint63_linear)" stroke-miterlimit="10"/><path d="M497.828 203.609L388.603 392.787l189.178 109.225 109.225-189.178-189.178-109.225z" stroke="url(#paint64_linear)" stroke-miterlimit="10"/><path d="M487.248 201.958L387.036 403.35l201.391 100.212L688.639 302.17 487.248 201.958z" stroke="url(#paint65_linear)" stroke-miterlimit="10"/><path d="M476.671 200.362l-91.205 213.602 213.603 91.206 91.205-213.603-213.603-91.205z" stroke="url(#paint66_linear)" stroke-miterlimit="10"/><path d="M465.989 198.764l-82.18 225.801 225.801 82.18 82.18-225.801-225.801-82.18z" stroke="url(#paint67_linear)" stroke-miterlimit="10"/><path d="M454.248 199.157l-70.1 237.296 237.295 70.1 70.1-237.296-237.295-70.1z" stroke="url(#paint68_linear)" stroke-miterlimit="10"/><path d="M442.409 199.365l-57.992 248.806 248.806 57.992 57.992-248.805-248.806-57.993z" stroke="url(#paint69_linear)" stroke-miterlimit="10"/><path d="M430.546 199.664L384.66 459.97l260.305 45.886 45.887-260.305-260.306-45.887z" stroke="url(#paint70_linear)" stroke-miterlimit="10"/><path d="M418.575 201.606l-30.593 270.465 270.465 30.593 30.593-270.465-270.465-30.593z" stroke="url(#paint71_linear)" stroke-miterlimit="10"/><path d="M406.488 203.664L391.2 484.267l280.603 15.287 15.287-280.602-280.602-15.288z" stroke="url(#paint72_linear)" stroke-miterlimit="10"/><path d="M685.28 205.657H394.522v290.758H685.28V205.657z" stroke="url(#paint73_linear)" stroke-miterlimit="10"/><path d="M679.368 192.998L380.539 211.5l18.503 298.829 298.829-18.503-18.503-298.828z" stroke="url(#paint74_linear)" stroke-miterlimit="10"/><path d="M673.46 180.199l-306.899 37.033 37.033 306.9 306.9-37.034-37.034-306.899z" stroke="url(#paint75_linear)" stroke-miterlimit="10"/><path d="M667.503 167.592l-314.969 55.523 55.522 314.969 314.969-55.523-55.522-314.969z" stroke="url(#paint76_linear)" stroke-miterlimit="10"/><path d="M659.362 154.139l-320.187 77.132 77.132 320.187 320.187-77.132-77.132-320.187z" stroke="url(#paint77_linear)" stroke-miterlimit="10"/><path d="M651.142 140.644l-325.381 98.747 98.746 325.381 325.382-98.747-98.747-325.381z" stroke="url(#paint78_linear)" stroke-miterlimit="10"/><path d="M642.958 127.349l-330.599 120.32 120.32 330.598 330.599-120.32-120.32-330.598z" stroke="url(#paint79_linear)" stroke-miterlimit="10"/><path d="M631.464 114.298L299.367 259.027l144.729 332.097 332.097-144.728-144.729-332.098z" stroke="url(#paint80_linear)" stroke-miterlimit="10"/><path d="M620.134 101.44L286.491 270.543l169.103 333.644 333.644-169.103L620.134 101.44z" stroke="url(#paint81_linear)" stroke-miterlimit="10"/><path d="M608.613 88.442L273.474 281.941l193.498 335.14 335.14-193.499-193.499-335.14z" stroke="url(#paint82_linear)" stroke-miterlimit="10"/><path d="M593.858 76.619L261.706 296.832l220.212 332.152 332.153-220.213L593.858 76.619z" stroke="url(#paint83_linear)" stroke-miterlimit="10"/><path d="M578.901 64.804L249.787 311.71l246.908 329.114 329.114-246.907L578.901 64.804z" stroke="url(#paint84_linear)" stroke-miterlimit="10"/><path d="M563.995 52.875L237.914 326.51l273.635 326.081L837.63 378.956 563.995 52.875z" stroke="url(#paint85_linear)" stroke-miterlimit="10"/><path d="M545.631 42.942L227.913 344.923l301.981 317.718L847.612 360.66 545.631 42.942z" stroke="url(#paint86_linear)" stroke-miterlimit="10"/><path d="M527.261 32.922L217.915 363.268l330.346 309.346 309.346-330.346L527.261 32.922z" stroke="url(#paint87_linear)" stroke-miterlimit="10"/><path d="M508.964 23L207.963 381.691l358.691 301.001 301.001-358.691-358.691-301z" stroke="url(#paint88_linear)" stroke-miterlimit="10"/><path d="M487.164 15.647L200.647 403.472l387.825 286.516 286.516-387.824L487.164 15.647z" stroke="url(#paint89_linear)" stroke-miterlimit="10"/><path d="M465.336 8.31L193.311 425.26l416.95 272.026 272.026-416.951L465.336 8.309z" stroke="url(#paint90_linear)" stroke-miterlimit="10"/><path d="M443.547 1L186 447.071l446.07 257.546 257.547-446.07L443.547 1z" stroke="url(#paint91_linear)" stroke-miterlimit="10"/><defs><linearGradient id="paint0_linear" x1="328.039" y1="332.056" x2="377.578" y2="373.627" gradientUnits="userSpaceOnUse"><stop stop-color="#26C6DA"/><stop offset="1" stop-color="#03A9F4"/></linearGradient><linearGradient id="paint1_linear" x1="332.366" y1="316.637" x2="373.244" y2="388.873" gradientUnits="userSpaceOnUse"><stop stop-color="#26C6DA"/><stop offset="1" stop-color="#03A9F4"/></linearGradient><linearGradient id="paint2_linear" x1="336.702" y1="301.249" x2="368.922" y2="404.155" gradientUnits="userSpaceOnUse"><stop stop-color="#26C6DA"/><stop offset="1" stop-color="#03A9F4"/></linearGradient><linearGradient id="paint3_linear" x1="341.008" y1="286.047" x2="364.555" y2="419.622" gradientUnits="userSpaceOnUse"><stop stop-color="#26C6DA"/><stop offset="1" stop-color="#03A9F4"/></linearGradient><linearGradient id="paint4_linear" x1="338.077" y1="284.322" x2="370.788" y2="420.112" gradientUnits="userSpaceOnUse"><stop stop-color="#26C6DA"/><stop offset="1" stop-color="#03A9F4"/></linearGradient><linearGradient id="paint5_linear" x1="335.087" y1="282.544" x2="376.966" y2="420.539" gradientUnits="userSpaceOnUse"><stop stop-color="#26C6DA"/><stop offset="1" stop-color="#03A9F4"/></linearGradient><linearGradient id="paint6_linear" x1="332.1" y1="280.959" x2="383.127" y2="421.164" gradientUnits="userSpaceOnUse"><stop stop-color="#26C6DA"/><stop offset="1" stop-color="#03A9F4"/></linearGradient><linearGradient id="paint7_linear" x1="325.291" y1="281.124" x2="386.671" y2="421.966" gradientUnits="userSpaceOnUse"><stop stop-color="#26C6DA"/><stop offset="1" stop-color="#03A9F4"/></linearGradient><linearGradient id="paint8_linear" x1="318.604" y1="281.481" x2="390.321" y2="422.98" gradientUnits="userSpaceOnUse"><stop stop-color="#26C6DA"/><stop offset="1" stop-color="#03A9F4"/></linearGradient><linearGradient id="paint9_linear" x1="311.757" y1="281.696" x2="393.82" y2="423.828" gradientUnits="userSpaceOnUse"><stop stop-color="#26C6DA"/><stop offset="1" stop-color="#03A9F4"/></linearGradient><linearGradient id="paint10_linear" x1="306.193" y1="282.364" x2="399.585" y2="423.23" gradientUnits="userSpaceOnUse"><stop stop-color="#26C6DA"/><stop offset="1" stop-color="#03A9F4"/></linearGradient><linearGradient id="paint11_linear" x1="300.442" y1="283.023" x2="405.155" y2="422.6" gradientUnits="userSpaceOnUse"><stop stop-color="#26C6DA"/><stop offset="1" stop-color="#03A9F4"/></linearGradient><linearGradient id="paint12_linear" x1="294.751" y1="283.586" x2="410.801" y2="421.879" gradientUnits="userSpaceOnUse"><stop stop-color="#26C6DA"/><stop offset="1" stop-color="#03A9F4"/></linearGradient><linearGradient id="paint13_linear" x1="288.728" y1="285.42" x2="416.798" y2="420.164" gradientUnits="userSpaceOnUse"><stop stop-color="#26C6DA"/><stop offset="1" stop-color="#03A9F4"/></linearGradient><linearGradient id="paint14_linear" x1="282.715" y1="287.172" x2="422.816" y2="418.366" gradientUnits="userSpaceOnUse"><stop stop-color="#26C6DA"/><stop offset="1" stop-color="#03A9F4"/></linearGradient><linearGradient id="paint15_linear" x1="276.749" y1="289.02" x2="428.87" y2="416.675" gradientUnits="userSpaceOnUse"><stop stop-color="#26C6DA"/><stop offset="1" stop-color="#03A9F4"/></linearGradient><linearGradient id="paint16_linear" x1="270.58" y1="292.058" x2="435.054" y2="413.568" gradientUnits="userSpaceOnUse"><stop stop-color="#26C6DA"/><stop offset="1" stop-color="#03A9F4"/></linearGradient><linearGradient id="paint17_linear" x1="264.387" y1="295.119" x2="441.213" y2="410.483" gradientUnits="userSpaceOnUse"><stop stop-color="#26C6DA"/><stop offset="1" stop-color="#03A9F4"/></linearGradient><linearGradient id="paint18_linear" x1="258.216" y1="298.198" x2="447.394" y2="407.423" gradientUnits="userSpaceOnUse"><stop stop-color="#26C6DA"/><stop offset="1" stop-color="#03A9F4"/></linearGradient><linearGradient id="paint19_linear" x1="252.142" y1="302.654" x2="453.533" y2="402.866" gradientUnits="userSpaceOnUse"><stop stop-color="#26C6DA"/><stop offset="1" stop-color="#03A9F4"/></linearGradient><linearGradient id="paint20_linear" x1="246.069" y1="307.163" x2="459.671" y2="398.369" gradientUnits="userSpaceOnUse"><stop stop-color="#26C6DA"/><stop offset="1" stop-color="#03A9F4"/></linearGradient><linearGradient id="paint21_linear" x1="239.899" y1="311.665" x2="465.7" y2="393.844" gradientUnits="userSpaceOnUse"><stop stop-color="#26C6DA"/><stop offset="1" stop-color="#03A9F4"/></linearGradient><linearGradient id="paint22_linear" x1="234.198" y1="317.805" x2="471.493" y2="387.905" gradientUnits="userSpaceOnUse"><stop stop-color="#26C6DA"/><stop offset="1" stop-color="#03A9F4"/></linearGradient><linearGradient id="paint23_linear" x1="228.413" y1="323.768" x2="477.219" y2="381.761" gradientUnits="userSpaceOnUse"><stop stop-color="#26C6DA"/><stop offset="1" stop-color="#03A9F4"/></linearGradient><linearGradient id="paint24_linear" x1="222.603" y1="329.817" x2="482.909" y2="375.703" gradientUnits="userSpaceOnUse"><stop stop-color="#26C6DA"/><stop offset="1" stop-color="#03A9F4"/></linearGradient><linearGradient id="paint25_linear" x1="218.279" y1="336.838" x2="488.744" y2="367.431" gradientUnits="userSpaceOnUse"><stop stop-color="#26C6DA"/><stop offset="1" stop-color="#03A9F4"/></linearGradient><linearGradient id="paint26_linear" x1="213.844" y1="343.965" x2="494.447" y2="359.253" gradientUnits="userSpaceOnUse"><stop stop-color="#26C6DA"/><stop offset="1" stop-color="#03A9F4"/></linearGradient><linearGradient id="paint27_linear" x1="354.901" y1="205.657" x2="354.901" y2="496.415" gradientUnits="userSpaceOnUse"><stop stop-color="#26C6DA"/><stop offset="1" stop-color="#03A9F4"/></linearGradient><linearGradient id="paint28_linear" x1="344.953" y1="202.249" x2="363.456" y2="501.078" gradientUnits="userSpaceOnUse"><stop stop-color="#26C6DA"/><stop offset="1" stop-color="#03A9F4"/></linearGradient><linearGradient id="paint29_linear" x1="335.01" y1="198.715" x2="372.044" y2="505.615" gradientUnits="userSpaceOnUse"><stop stop-color="#26C6DA"/><stop offset="1" stop-color="#03A9F4"/></linearGradient><linearGradient id="paint30_linear" x1="325.018" y1="195.353" x2="380.541" y2="510.322" gradientUnits="userSpaceOnUse"><stop stop-color="#26C6DA"/><stop offset="1" stop-color="#03A9F4"/></linearGradient><linearGradient id="paint31_linear" x1="314.268" y1="192.705" x2="391.401" y2="512.892" gradientUnits="userSpaceOnUse"><stop stop-color="#26C6DA"/><stop offset="1" stop-color="#03A9F4"/></linearGradient><linearGradient id="paint32_linear" x1="303.451" y1="190.017" x2="402.198" y2="515.399" gradientUnits="userSpaceOnUse"><stop stop-color="#26C6DA"/><stop offset="1" stop-color="#03A9F4"/></linearGradient><linearGradient id="paint33_linear" x1="292.659" y1="187.509" x2="412.979" y2="518.107" gradientUnits="userSpaceOnUse"><stop stop-color="#26C6DA"/><stop offset="1" stop-color="#03A9F4"/></linearGradient><linearGradient id="paint34_linear" x1="280.415" y1="186.662" x2="425.144" y2="518.76" gradientUnits="userSpaceOnUse"><stop stop-color="#26C6DA"/><stop offset="1" stop-color="#03A9F4"/></linearGradient><linearGradient id="paint35_linear" x1="268.313" y1="185.992" x2="437.416" y2="519.635" gradientUnits="userSpaceOnUse"><stop stop-color="#26C6DA"/><stop offset="1" stop-color="#03A9F4"/></linearGradient><linearGradient id="paint36_linear" x1="256.044" y1="185.192" x2="449.542" y2="520.331" gradientUnits="userSpaceOnUse"><stop stop-color="#26C6DA"/><stop offset="1" stop-color="#03A9F4"/></linearGradient><linearGradient id="paint37_linear" x1="242.782" y1="186.725" x2="462.994" y2="518.877" gradientUnits="userSpaceOnUse"><stop stop-color="#26C6DA"/><stop offset="1" stop-color="#03A9F4"/></linearGradient><linearGradient id="paint38_linear" x1="229.344" y1="188.258" x2="476.252" y2="517.372" gradientUnits="userSpaceOnUse"><stop stop-color="#26C6DA"/><stop offset="1" stop-color="#03A9F4"/></linearGradient><linearGradient id="paint39_linear" x1="215.954" y1="189.692" x2="489.59" y2="515.774" gradientUnits="userSpaceOnUse"><stop stop-color="#26C6DA"/><stop offset="1" stop-color="#03A9F4"/></linearGradient><linearGradient id="paint40_linear" x1="201.772" y1="193.932" x2="503.753" y2="511.65" gradientUnits="userSpaceOnUse"><stop stop-color="#26C6DA"/><stop offset="1" stop-color="#03A9F4"/></linearGradient><linearGradient id="paint41_linear" x1="187.588" y1="198.095" x2="517.934" y2="507.441" gradientUnits="userSpaceOnUse"><stop stop-color="#26C6DA"/><stop offset="1" stop-color="#03A9F4"/></linearGradient><linearGradient id="paint42_linear" x1="173.464" y1="202.346" x2="532.155" y2="503.347" gradientUnits="userSpaceOnUse"><stop stop-color="#26C6DA"/><stop offset="1" stop-color="#03A9F4"/></linearGradient><linearGradient id="paint43_linear" x1="158.906" y1="209.56" x2="546.73" y2="496.076" gradientUnits="userSpaceOnUse"><stop stop-color="#26C6DA"/><stop offset="1" stop-color="#03A9F4"/></linearGradient><linearGradient id="paint44_linear" x1="144.324" y1="216.785" x2="561.274" y2="488.81" gradientUnits="userSpaceOnUse"><stop stop-color="#26C6DA"/><stop offset="1" stop-color="#03A9F4"/></linearGradient><linearGradient id="paint45_linear" x1="129.773" y1="224.035" x2="575.844" y2="481.582" gradientUnits="userSpaceOnUse"><stop stop-color="#26C6DA"/><stop offset="1" stop-color="#03A9F4"/></linearGradient><linearGradient id="paint46_linear" x1="513.039" y1="332.056" x2="562.578" y2="373.627" gradientUnits="userSpaceOnUse"><stop stop-color="#26C6DA"/><stop offset="1" stop-color="#03A9F4"/></linearGradient><linearGradient id="paint47_linear" x1="517.366" y1="316.637" x2="558.244" y2="388.873" gradientUnits="userSpaceOnUse"><stop stop-color="#26C6DA"/><stop offset="1" stop-color="#03A9F4"/></linearGradient><linearGradient id="paint48_linear" x1="521.702" y1="301.249" x2="553.922" y2="404.155" gradientUnits="userSpaceOnUse"><stop stop-color="#26C6DA"/><stop offset="1" stop-color="#03A9F4"/></linearGradient><linearGradient id="paint49_linear" x1="526.008" y1="286.047" x2="549.555" y2="419.622" gradientUnits="userSpaceOnUse"><stop stop-color="#26C6DA"/><stop offset="1" stop-color="#03A9F4"/></linearGradient><linearGradient id="paint50_linear" x1="523.077" y1="284.322" x2="555.788" y2="420.112" gradientUnits="userSpaceOnUse"><stop stop-color="#26C6DA"/><stop offset="1" stop-color="#03A9F4"/></linearGradient><linearGradient id="paint51_linear" x1="520.087" y1="282.544" x2="561.966" y2="420.539" gradientUnits="userSpaceOnUse"><stop stop-color="#26C6DA"/><stop offset="1" stop-color="#03A9F4"/></linearGradient><linearGradient id="paint52_linear" x1="517.1" y1="280.959" x2="568.127" y2="421.164" gradientUnits="userSpaceOnUse"><stop stop-color="#26C6DA"/><stop offset="1" stop-color="#03A9F4"/></linearGradient><linearGradient id="paint53_linear" x1="510.291" y1="281.124" x2="571.671" y2="421.966" gradientUnits="userSpaceOnUse"><stop stop-color="#26C6DA"/><stop offset="1" stop-color="#03A9F4"/></linearGradient><linearGradient id="paint54_linear" x1="503.604" y1="281.481" x2="575.321" y2="422.98" gradientUnits="userSpaceOnUse"><stop stop-color="#26C6DA"/><stop offset="1" stop-color="#03A9F4"/></linearGradient><linearGradient id="paint55_linear" x1="496.757" y1="281.696" x2="578.82" y2="423.828" gradientUnits="userSpaceOnUse"><stop stop-color="#26C6DA"/><stop offset="1" stop-color="#03A9F4"/></linearGradient><linearGradient id="paint56_linear" x1="491.193" y1="282.364" x2="584.585" y2="423.23" gradientUnits="userSpaceOnUse"><stop stop-color="#26C6DA"/><stop offset="1" stop-color="#03A9F4"/></linearGradient><linearGradient id="paint57_linear" x1="485.442" y1="283.023" x2="590.155" y2="422.6" gradientUnits="userSpaceOnUse"><stop stop-color="#26C6DA"/><stop offset="1" stop-color="#03A9F4"/></linearGradient><linearGradient id="paint58_linear" x1="479.751" y1="283.586" x2="595.801" y2="421.879" gradientUnits="userSpaceOnUse"><stop stop-color="#26C6DA"/><stop offset="1" stop-color="#03A9F4"/></linearGradient><linearGradient id="paint59_linear" x1="473.728" y1="285.42" x2="601.798" y2="420.164" gradientUnits="userSpaceOnUse"><stop stop-color="#26C6DA"/><stop offset="1" stop-color="#03A9F4"/></linearGradient><linearGradient id="paint60_linear" x1="467.715" y1="287.172" x2="607.816" y2="418.366" gradientUnits="userSpaceOnUse"><stop stop-color="#26C6DA"/><stop offset="1" stop-color="#03A9F4"/></linearGradient><linearGradient id="paint61_linear" x1="461.749" y1="289.02" x2="613.87" y2="416.675" gradientUnits="userSpaceOnUse"><stop stop-color="#26C6DA"/><stop offset="1" stop-color="#03A9F4"/></linearGradient><linearGradient id="paint62_linear" x1="455.58" y1="292.058" x2="620.054" y2="413.568" gradientUnits="userSpaceOnUse"><stop stop-color="#26C6DA"/><stop offset="1" stop-color="#03A9F4"/></linearGradient><linearGradient id="paint63_linear" x1="449.387" y1="295.119" x2="626.213" y2="410.483" gradientUnits="userSpaceOnUse"><stop stop-color="#26C6DA"/><stop offset="1" stop-color="#03A9F4"/></linearGradient><linearGradient id="paint64_linear" x1="443.216" y1="298.198" x2="632.394" y2="407.423" gradientUnits="userSpaceOnUse"><stop stop-color="#26C6DA"/><stop offset="1" stop-color="#03A9F4"/></linearGradient><linearGradient id="paint65_linear" x1="437.142" y1="302.654" x2="638.533" y2="402.866" gradientUnits="userSpaceOnUse"><stop stop-color="#26C6DA"/><stop offset="1" stop-color="#03A9F4"/></linearGradient><linearGradient id="paint66_linear" x1="431.069" y1="307.163" x2="644.671" y2="398.369" gradientUnits="userSpaceOnUse"><stop stop-color="#26C6DA"/><stop offset="1" stop-color="#03A9F4"/></linearGradient><linearGradient id="paint67_linear" x1="424.899" y1="311.665" x2="650.7" y2="393.844" gradientUnits="userSpaceOnUse"><stop stop-color="#26C6DA"/><stop offset="1" stop-color="#03A9F4"/></linearGradient><linearGradient id="paint68_linear" x1="419.198" y1="317.805" x2="656.493" y2="387.905" gradientUnits="userSpaceOnUse"><stop stop-color="#26C6DA"/><stop offset="1" stop-color="#03A9F4"/></linearGradient><linearGradient id="paint69_linear" x1="413.413" y1="323.768" x2="662.219" y2="381.761" gradientUnits="userSpaceOnUse"><stop stop-color="#26C6DA"/><stop offset="1" stop-color="#03A9F4"/></linearGradient><linearGradient id="paint70_linear" x1="407.603" y1="329.817" x2="667.909" y2="375.703" gradientUnits="userSpaceOnUse"><stop stop-color="#26C6DA"/><stop offset="1" stop-color="#03A9F4"/></linearGradient><linearGradient id="paint71_linear" x1="403.279" y1="336.838" x2="673.744" y2="367.431" gradientUnits="userSpaceOnUse"><stop stop-color="#26C6DA"/><stop offset="1" stop-color="#03A9F4"/></linearGradient><linearGradient id="paint72_linear" x1="398.844" y1="343.965" x2="679.447" y2="359.253" gradientUnits="userSpaceOnUse"><stop stop-color="#26C6DA"/><stop offset="1" stop-color="#03A9F4"/></linearGradient><linearGradient id="paint73_linear" x1="539.901" y1="205.657" x2="539.901" y2="496.415" gradientUnits="userSpaceOnUse"><stop stop-color="#26C6DA"/><stop offset="1" stop-color="#03A9F4"/></linearGradient><linearGradient id="paint74_linear" x1="529.953" y1="202.249" x2="548.456" y2="501.078" gradientUnits="userSpaceOnUse"><stop stop-color="#26C6DA"/><stop offset="1" stop-color="#03A9F4"/></linearGradient><linearGradient id="paint75_linear" x1="520.01" y1="198.715" x2="557.044" y2="505.615" gradientUnits="userSpaceOnUse"><stop stop-color="#26C6DA"/><stop offset="1" stop-color="#03A9F4"/></linearGradient><linearGradient id="paint76_linear" x1="510.018" y1="195.353" x2="565.541" y2="510.322" gradientUnits="userSpaceOnUse"><stop stop-color="#26C6DA"/><stop offset="1" stop-color="#03A9F4"/></linearGradient><linearGradient id="paint77_linear" x1="499.268" y1="192.705" x2="576.401" y2="512.892" gradientUnits="userSpaceOnUse"><stop stop-color="#26C6DA"/><stop offset="1" stop-color="#03A9F4"/></linearGradient><linearGradient id="paint78_linear" x1="488.451" y1="190.017" x2="587.198" y2="515.399" gradientUnits="userSpaceOnUse"><stop stop-color="#26C6DA"/><stop offset="1" stop-color="#03A9F4"/></linearGradient><linearGradient id="paint79_linear" x1="477.659" y1="187.509" x2="597.979" y2="518.107" gradientUnits="userSpaceOnUse"><stop stop-color="#26C6DA"/><stop offset="1" stop-color="#03A9F4"/></linearGradient><linearGradient id="paint80_linear" x1="465.415" y1="186.662" x2="610.144" y2="518.76" gradientUnits="userSpaceOnUse"><stop stop-color="#26C6DA"/><stop offset="1" stop-color="#03A9F4"/></linearGradient><linearGradient id="paint81_linear" x1="453.313" y1="185.992" x2="622.416" y2="519.635" gradientUnits="userSpaceOnUse"><stop stop-color="#26C6DA"/><stop offset="1" stop-color="#03A9F4"/></linearGradient><linearGradient id="paint82_linear" x1="441.044" y1="185.192" x2="634.542" y2="520.331" gradientUnits="userSpaceOnUse"><stop stop-color="#26C6DA"/><stop offset="1" stop-color="#03A9F4"/></linearGradient><linearGradient id="paint83_linear" x1="427.782" y1="186.725" x2="647.994" y2="518.877" gradientUnits="userSpaceOnUse"><stop stop-color="#26C6DA"/><stop offset="1" stop-color="#03A9F4"/></linearGradient><linearGradient id="paint84_linear" x1="414.344" y1="188.258" x2="661.252" y2="517.372" gradientUnits="userSpaceOnUse"><stop stop-color="#26C6DA"/><stop offset="1" stop-color="#03A9F4"/></linearGradient><linearGradient id="paint85_linear" x1="400.954" y1="189.692" x2="674.59" y2="515.774" gradientUnits="userSpaceOnUse"><stop stop-color="#26C6DA"/><stop offset="1" stop-color="#03A9F4"/></linearGradient><linearGradient id="paint86_linear" x1="386.772" y1="193.932" x2="688.753" y2="511.65" gradientUnits="userSpaceOnUse"><stop stop-color="#26C6DA"/><stop offset="1" stop-color="#03A9F4"/></linearGradient><linearGradient id="paint87_linear" x1="372.588" y1="198.095" x2="702.934" y2="507.441" gradientUnits="userSpaceOnUse"><stop stop-color="#26C6DA"/><stop offset="1" stop-color="#03A9F4"/></linearGradient><linearGradient id="paint88_linear" x1="358.464" y1="202.346" x2="717.155" y2="503.347" gradientUnits="userSpaceOnUse"><stop stop-color="#26C6DA"/><stop offset="1" stop-color="#03A9F4"/></linearGradient><linearGradient id="paint89_linear" x1="343.906" y1="209.56" x2="731.73" y2="496.076" gradientUnits="userSpaceOnUse"><stop stop-color="#26C6DA"/><stop offset="1" stop-color="#03A9F4"/></linearGradient><linearGradient id="paint90_linear" x1="329.324" y1="216.785" x2="746.274" y2="488.81" gradientUnits="userSpaceOnUse"><stop stop-color="#26C6DA"/><stop offset="1" stop-color="#03A9F4"/></linearGradient><linearGradient id="paint91_linear" x1="314.773" y1="224.035" x2="760.844" y2="481.582" gradientUnits="userSpaceOnUse"><stop stop-color="#26C6DA"/><stop offset="1" stop-color="#03A9F4"/></linearGradient></defs></svg>