<svg width="666" height="618" fill="none" xmlns="http://www.w3.org/2000/svg"><path d="M310.717 386.192l49.534 8.226c19.35 3.213 34.925-15.723 28.035-34.091l-17.639-47.011c-6.891-18.368-31.083-22.381-43.544-7.232l-31.888 38.784c-12.466 15.155-3.848 38.111 15.502 41.324z" stroke="#293DFF" stroke-width=".552" stroke-miterlimit="10"/><path d="M305.539 393.103l63.49 6.636c19.72 2.645 34.908-17.054 27.339-35.455l-25.998-58.301c-7.574-18.401-32.225-21.702-44.376-5.946l-37.493 51.67c-12.151 15.752-2.688 38.752 17.038 41.396z" stroke="#4051FF" stroke-width=".552" stroke-miterlimit="10"/><path d="M300.36 400.01l77.453 5.04c20.096 2.071 34.892-18.384 26.643-36.824L370.1 298.63c-8.254-18.44-33.368-21.029-45.211-4.66l-43.09 64.55c-11.853 16.375-1.535 39.42 18.561 41.49z" stroke="#5764FF" stroke-width=".552" stroke-miterlimit="10"/><path d="M295.176 406.922l91.409 3.451c20.466 1.501 34.881-19.715 25.943-38.188l-42.715-80.887c-8.933-18.473-34.517-20.35-46.045-3.373l-48.694 77.436c-11.527 16.971-.359 40.059 20.102 41.561z" stroke="#6E78FF" stroke-width=".552" stroke-miterlimit="10"/><path d="M289.997 413.829l105.372 1.861c20.836.927 34.864-21.046 25.247-39.557l-51.074-92.183c-9.612-18.506-35.659-19.671-46.878-2.087l-54.292 90.322c-11.229 17.584.79 40.717 21.625 41.644z" stroke="#848CFF" stroke-width=".552" stroke-miterlimit="10"/><path d="M284.819 420.741l119.328.265c21.206.359 34.848-22.376 24.552-40.921l-59.433-103.478c-10.296-18.545-36.802-18.992-47.717-.801l-59.896 103.208c-10.909 18.191 1.96 41.368 23.166 41.727z" stroke="#9B9FFF" stroke-width=".552" stroke-miterlimit="10"/><path d="M279.64 426.985l133.291-1.325c21.575-.215 34.831-23.707 23.856-42.285l-67.791-114.768c-10.976-18.577-37.945-18.312-48.551.481l-65.5 116.093c-10.6 18.793 3.114 42.019 24.695 41.804z" stroke="#B2B3FF" stroke-width=".552" stroke-miterlimit="10"/><path d="M280.363 429.502l135.096-5.587c21.868-.906 34.561-25.142 22.84-43.632l-72.384-114.205c-11.721-18.489-39.055-17.358-49.208 2.037l-62.712 119.792c-10.147 19.39 4.5 42.5 26.368 41.595z" stroke="#94A0FD" stroke-width=".552" stroke-miterlimit="10"/><path d="M281.092 432.021l136.907-9.85c22.161-1.595 34.29-26.583 21.824-44.978L362.84 263.551c-12.461-18.396-40.165-16.403-49.865 3.588l-59.924 123.486c-9.7 19.991 5.875 42.991 28.041 41.396z" stroke="#778CFC" stroke-width=".552" stroke-miterlimit="10"/><path d="M281.815 434.537l138.713-14.111c22.453-2.286 34.019-28.019 20.813-46.326l-81.576-113.073c-13.206-18.308-41.274-15.448-50.527 5.14l-57.136 127.184c-9.248 20.588 7.26 43.472 29.713 41.186z" stroke="#5979FA" stroke-width=".552" stroke-miterlimit="10"/><path d="M282.539 437.055l140.523-18.374c22.746-2.975 33.743-29.459 19.798-47.673l-86.17-112.51c-13.952-18.213-42.384-14.498-51.185 6.692l-54.347 130.883c-8.8 21.189 8.635 43.952 31.381 40.982z" stroke="#3B66F8" stroke-width=".552" stroke-miterlimit="10"/><path d="M283.267 439.571l142.328-22.636c23.039-3.665 33.474-30.895 18.783-49.02l-90.764-111.947c-14.691-18.119-43.493-13.542-51.841 8.243l-51.565 134.577c-8.348 21.791 10.015 44.443 33.059 40.783z" stroke="#1E52F7" stroke-width=".552" stroke-miterlimit="10"/><path d="M283.99 442.088l144.14-26.897c23.331-4.356 33.202-32.336 17.766-50.367l-95.362-111.379c-15.437-18.031-44.604-12.587-52.498 9.794l-48.777 138.276c-7.895 22.388 11.4 44.924 34.731 40.573z" stroke="#003FF5" stroke-width=".552" stroke-miterlimit="10"/><path d="M285.586 444.137l145.282-31.855c23.519-5.157 32.634-33.843 16.408-51.632L347.045 250.763c-16.226-17.789-45.625-11.346-52.918 11.605l-45.05 141.748c-7.288 22.94 12.99 45.178 36.509 40.021z" stroke="#0843F7" stroke-width=".552" stroke-miterlimit="10"/><path d="M287.187 446.186l146.425-36.819c23.707-5.962 32.065-35.345 15.055-52.896L343.566 248.074c-17.015-17.55-46.646-10.097-53.337 13.411L248.9 406.706c-6.686 23.502 14.58 45.437 38.287 39.48z" stroke="#0F47F8" stroke-width=".552" stroke-miterlimit="10"/><path d="M288.783 448.234l147.573-41.782c23.889-6.763 31.497-36.852 13.698-54.16L340.078 245.38c-17.805-17.308-47.662-8.85-53.752 15.221L248.723 409.29c-6.084 24.071 16.171 45.707 40.06 38.944z" stroke="#174CFA" stroke-width=".552" stroke-miterlimit="10"/><path d="M290.378 450.282l148.716-46.745c24.077-7.569 30.928-38.359 12.339-55.424l-114.84-105.422c-18.588-17.065-48.683-7.607-54.171 17.027l-33.876 152.161c-5.482 24.634 17.755 45.967 41.832 38.403z" stroke="#1E50FC" stroke-width=".552" stroke-miterlimit="10"/><path d="M291.974 452.332l149.859-51.703c24.258-8.37 30.359-39.867 10.981-56.689L333.11 240.004c-19.378-16.822-49.705-6.36-54.585 18.832l-30.15 155.633c-4.886 25.203 19.34 46.232 43.599 37.863z" stroke="#2554FD" stroke-width=".552" stroke-miterlimit="10"/><path d="M293.57 454.38l151.007-56.666c24.446-9.176 29.79-41.368 9.628-57.953l-124.579-102.44c-20.167-16.585-50.725-5.118-55.004 20.643L248.193 417.07c-4.278 25.755 20.936 46.486 45.377 37.31z" stroke="#2D58FF" stroke-width=".552" stroke-miterlimit="10"/><path d="M296.225 456.433l151.3-62.259c24.49-10.081 28.89-42.892 7.916-59.062l-129.569-99.895c-20.974-16.171-51.593-3.572-55.11 22.68l-21.73 162.159c-3.522 26.241 22.697 46.453 47.193 36.377z" stroke="#4167FF" stroke-width=".552" stroke-miterlimit="10"/><path d="M298.875 458.486l151.587-67.857c24.54-10.986 27.985-44.415 6.205-60.178l-134.555-97.349c-21.785-15.762-52.459-2.032-55.214 24.717l-17.032 165.207c-2.76 26.743 24.469 46.441 49.009 35.46z" stroke="#5576FF" stroke-width=".552" stroke-miterlimit="10"/><path d="M301.53 460.54l151.88-73.45c24.59-11.892 27.085-45.939 4.494-61.287l-139.551-94.81c-22.592-15.348-53.327-.486-55.32 26.754L250.7 426.007c-1.993 27.235 26.24 46.42 50.83 34.533z" stroke="#6A85FF" stroke-width=".552" stroke-miterlimit="10"/><path d="M304.186 462.595l152.172-79.043c24.634-12.797 26.18-47.463 2.783-62.397L314.598 228.89c-23.397-14.934-54.193 1.06-55.429 28.791l-7.636 171.308c-1.231 27.731 28.019 46.403 52.653 33.606z" stroke="#7E95FF" stroke-width=".552" stroke-miterlimit="10"/><path d="M306.836 464.648l152.465-84.635c24.684-13.703 25.274-48.981 1.071-63.507l-149.533-89.72c-24.209-14.525-55.06 2.601-55.535 30.829l-2.937 174.361c-.469 28.217 29.791 46.375 54.469 32.672z" stroke="#92A4FF" stroke-width=".552" stroke-miterlimit="10"/><path d="M310.375 466.703l152.757-90.234c24.728-14.608 24.375-50.505-.64-64.616l-154.524-87.175c-25.016-14.111-55.927 4.146-55.64 32.866l1.761 177.408c.287 28.714 31.552 46.359 56.286 31.751z" stroke="#A6B3FF" stroke-width=".552" stroke-miterlimit="10"/><path d="M314.35 468.832l152.36-96.648c24.529-15.531 23.049-51.792-2.667-65.268l-159.879-83.62c-25.716-13.476-56.374 5.935-55.192 34.942l7.519 180.268c1.187 29.012 33.33 45.856 57.859 30.326z" stroke="#9DAFFF" stroke-width=".552" stroke-miterlimit="10"/><path d="M318.33 470.97l151.957-103.064c24.331-16.453 21.725-53.073-4.687-65.92l-165.235-80.069c-26.411-12.842-56.826 7.724-54.739 37.017l13.278 183.134c2.081 29.299 35.096 45.354 59.426 28.902z" stroke="#94AAFF" stroke-width=".552" stroke-miterlimit="10"/><path d="M322.311 473.101L473.87 363.617c24.132-17.375 20.4-54.359-6.713-66.566l-170.595-76.514c-27.113-12.206-57.274 9.513-54.293 39.099l19.036 185.993c2.982 29.587 36.874 44.846 61.006 27.472z" stroke="#8BA6FF" stroke-width=".552" stroke-miterlimit="10"/><path d="M326.286 475.231l151.156-115.9c23.928-18.302 19.075-55.64-8.734-67.217l-175.95-72.958c-27.814-11.572-57.727 11.301-53.84 41.174l24.794 188.859c3.882 29.873 38.647 44.344 62.574 26.042z" stroke="#81A2FF" stroke-width=".552" stroke-miterlimit="10"/><path d="M330.267 477.368l150.758-122.321c23.729-19.224 17.75-56.926-10.76-67.863l-181.311-69.403c-28.51-10.937-58.174 13.09-53.393 43.251l30.553 191.718c4.787 30.166 40.424 43.836 64.153 24.618z" stroke="#789DFF" stroke-width=".552" stroke-miterlimit="10"/><path d="M334.247 479.498l150.356-128.736c23.53-20.146 16.425-58.207-12.786-68.514L285.15 216.4c-29.211-10.302-58.621 14.879-52.94 45.327l36.306 194.583c5.686 30.453 42.201 43.334 65.731 23.188z" stroke="#6F99FF" stroke-width=".552" stroke-miterlimit="10"/><path d="M339.155 482.266l149.821-137.1c22.884-20.775 14.702-58.538-14.736-67.968l-193.645-61.199c-29.437-9.435-58.041 16.535-51.493 46.745l43.825 198.3c6.548 30.204 43.339 41.997 66.228 21.222z" stroke="#639CFA" stroke-width=".552" stroke-miterlimit="10"/><path d="M344.063 485.026l149.285-145.47c22.244-21.404 12.974-58.863-16.684-67.426l-200.623-56.551c-29.659-8.563-57.467 18.197-50.047 48.165l51.338 202.02c7.409 29.967 44.482 40.667 66.731 19.262z" stroke="#589FF5" stroke-width=".552" stroke-miterlimit="10"/><path d="M348.966 487.791l148.749-153.839c21.603-22.034 11.246-59.19-18.633-66.88L271.48 215.17c-29.884-7.691-56.887 19.853-48.606 49.577l58.853 205.742c8.287 29.724 45.641 39.336 67.239 17.302z" stroke="#4CA2F1" stroke-width=".552" stroke-miterlimit="10"/><path d="M353.874 490.558l148.214-162.209c20.957-22.663 9.523-59.521-20.588-66.339l-214.58-47.253c-30.105-6.819-56.308 21.515-47.16 50.996l66.367 209.463c9.154 29.481 46.79 38.005 67.747 15.342z" stroke="#40A5EC" stroke-width=".552" stroke-miterlimit="10"/><path d="M358.782 493.324L506.46 322.751c20.317-23.293 7.796-59.846-22.536-65.792L262.36 214.348c-30.332-5.946-55.728 23.172-45.713 52.416l73.88 213.183c10.026 29.239 47.938 36.67 68.255 13.377z" stroke="#35A8E7" stroke-width=".552" stroke-miterlimit="10"/><path d="M363.69 496.085l147.143-178.943c19.671-23.928 6.067-60.178-24.485-65.252l-228.543-37.961c-30.558-5.074-55.148 24.833-44.266 53.834l81.394 216.905c10.887 29.001 49.086 35.344 68.757 11.417z" stroke="#29ABE2" stroke-width=".552" stroke-miterlimit="10"/><path d="M369.498 498.988l144.63-188.135c18.932-24.436 4.312-60.2-26.312-64.379l-235.245-31.188c-30.624-4.179-54.292 26.362-42.594 54.977l90.615 219.323c11.693 28.609 49.975 33.832 68.906 9.402z" stroke="#22A1DC" stroke-width=".552" stroke-miterlimit="10"/><path d="M375.311 501.887L517.43 304.559c18.191-24.943 2.556-60.222-28.14-63.501l-241.947-24.413c-30.696-3.28-53.431 27.897-40.926 56.119l99.828 221.741c12.505 28.223 50.875 32.325 69.066 7.382z" stroke="#1B98D5" stroke-width=".552" stroke-miterlimit="10"/><path d="M381.12 504.785l139.606-206.52c17.446-25.451.801-60.244-29.967-62.629l-248.655-17.644c-30.763-2.385-52.576 29.432-39.254 57.268l109.049 224.164c13.316 27.831 51.775 30.812 69.221 5.361z" stroke="#158ECF" stroke-width=".552" stroke-miterlimit="10"/><path d="M386.927 507.683l137.095-215.712c16.706-25.959-.955-60.266-31.795-61.756L236.87 219.344c-30.834-1.485-51.714 30.961-37.586 58.411l118.262 226.583c14.134 27.449 52.675 29.305 69.381 3.345z" stroke="#0E84C9" stroke-width=".552" stroke-miterlimit="10"/><path d="M392.736 510.587l134.582-224.904c15.961-26.467-2.716-60.294-33.616-60.879l-262.06-4.102c-30.906-.591-50.859 32.496-35.914 59.554l127.478 229.001c14.939 27.063 53.569 27.797 69.53 1.33z" stroke="#077BC2" stroke-width=".552" stroke-miterlimit="10"/><path d="M398.549 514.823L530.62 280.732c15.221-26.98-4.472-60.315-35.444-60.006l-268.768 2.672c-30.972.309-49.997 34.031-34.246 60.702l136.697 231.419c15.751 26.666 54.469 26.279 69.69-.696z" stroke="#0071BC" stroke-width=".552" stroke-miterlimit="10"/><path d="M405.207 518.191L532.43 274.455c14.399-27.351-6.205-60.034-37.095-58.831l-274.697 11.693c-30.884 1.204-48.887 35.389-32.402 61.536L335.71 520.901c16.491 26.142 55.099 24.64 69.497-2.71z" stroke="#0071BC" stroke-width=".552" stroke-miterlimit="10"/><path d="M411.871 521.558l122.376-253.381c13.581-27.72-7.939-59.752-38.74-57.654L214.88 231.232c-30.801 2.097-47.777 36.752-30.558 62.374l158.251 232.673c17.22 25.622 55.717 23 69.298-4.721z" stroke="#0071BC" stroke-width=".552" stroke-miterlimit="10"/><path d="M418.535 524.925l117.528-263.026c12.765-28.096-9.672-59.471-40.385-56.473l-286.556 29.73c-30.713 2.992-46.662 38.111-28.714 63.214L349.43 531.666c17.954 25.098 56.34 21.355 69.105-6.741z" stroke="#0071BC" stroke-width=".552" stroke-miterlimit="10"/><path d="M425.193 528.293l112.681-272.67c11.941-28.466-11.406-59.19-42.031-55.298l-292.485 38.751c-30.625 3.893-45.553 39.475-26.87 64.048L356.286 537.05c18.683 24.573 56.965 19.709 68.907-8.757z" stroke="#0071BC" stroke-width=".552" stroke-miterlimit="10"/><path d="M431.857 531.66l107.839-282.316c11.125-28.841-13.145-58.902-43.681-54.121L197.6 242.99c-30.536 4.786-44.443 40.832-25.026 64.887l190.575 234.549c19.412 24.055 57.583 18.07 68.708-10.766z" stroke="#0071BC" stroke-width=".552" stroke-miterlimit="10"/><path d="M438.52 535.029l102.992-291.962c10.302-29.211-14.879-58.62-45.327-52.939L191.841 246.91c-30.448 5.681-43.328 42.196-23.182 65.726l201.352 235.173c20.14 23.53 58.201 16.431 68.509-12.78z" stroke="#0071BC" stroke-width=".552" stroke-miterlimit="10"/><path d="M445.924 538.485l95.506-301.584c9.435-29.438-16.535-58.041-46.746-51.494l-308.932 68.084c-30.21 6.548-41.997 43.344-21.222 66.229l213.426 233.505c20.775 22.884 58.538 14.697 67.968-14.74z" stroke="#0866B5" stroke-width=".552" stroke-miterlimit="10"/><path d="M453.327 541.946l88.019-311.207c8.563-29.658-18.196-57.467-48.164-50.047l-313.525 79.374c-29.968 7.414-40.667 44.487-19.263 66.736L385.9 558.635c21.41 22.238 58.87 12.969 67.427-16.689z" stroke="#0F5CAE" stroke-width=".552" stroke-miterlimit="10"/><path d="M460.736 545.407l80.539-320.829c7.69-29.885-19.853-56.887-49.578-48.606l-318.119 90.669c-29.724 8.282-39.336 45.636-17.302 67.239l237.58 230.166c22.034 21.598 59.19 11.246 66.88-18.639z" stroke="#1751A7" stroke-width=".552" stroke-miterlimit="10"/><path d="M468.14 548.863l73.052-330.458c6.818-30.105-21.515-56.307-50.996-47.159L167.483 273.205c-29.481 9.149-38.005 46.785-15.342 67.742L401.795 569.44c22.675 20.968 59.526 9.534 66.345-20.577z" stroke="#1F46A0" stroke-width=".552" stroke-miterlimit="10"/><path d="M475.543 552.324l65.566-340.081c5.946-30.332-23.171-55.728-52.415-45.713l-327.3 113.255c-29.244 10.015-36.675 47.933-13.383 68.25L409.745 574.86c23.304 20.317 59.852 7.796 65.798-22.536z" stroke="#263C99" stroke-width=".552" stroke-miterlimit="10"/><path d="M482.952 555.786l58.086-349.703c5.073-30.558-24.833-55.149-53.835-44.267L155.31 286.367c-29.001 10.882-35.345 49.081-11.417 68.752l273.808 225.153c23.922 19.676 60.178 6.073 65.251-24.486z" stroke="#2E3192" stroke-width=".552" stroke-miterlimit="10"/><path d="M490.858 557.852l47.734-358.73c4.179-30.625-26.362-54.293-54.977-42.594L149.082 294.55c-28.609 11.693-33.832 49.975-9.402 68.906l286.799 220.703c24.436 18.937 60.2 4.318 64.379-26.307z" stroke="#2B2C8A" stroke-width=".552" stroke-miterlimit="10"/><path d="M498.769 559.916l37.382-367.757c3.28-30.696-27.897-53.431-56.12-40.926L142.854 302.737c-28.222 12.505-32.324 50.875-7.381 69.066l299.795 216.253c24.938 18.186 60.216 2.556 63.501-28.14z" stroke="#282783" stroke-width=".552" stroke-miterlimit="10"/><path d="M506.676 561.975l27.035-376.783c2.385-30.763-29.432-52.576-57.268-39.254L136.622 310.919c-27.837 13.316-30.812 51.775-5.361 69.221l312.786 211.803c25.451 17.446 60.244.8 62.629-29.968z" stroke="#25237B" stroke-width=".552" stroke-miterlimit="10"/><path d="M514.587 564.04l16.684-385.811c1.485-30.834-30.961-51.714-58.411-37.586L130.4 319.1c-27.445 14.128-29.305 52.675-3.346 69.375L452.83 595.829c25.959 16.712 60.266-.955 61.757-31.789z" stroke="#211E73" stroke-width=".552" stroke-miterlimit="10"/><path d="M522.493 566.105l6.332-394.837c.591-30.906-32.496-50.858-59.554-35.913L124.166 327.288c-27.058 14.94-27.797 53.57-1.325 69.536l338.767 202.904c26.473 15.96 60.294-2.717 60.885-33.623z" stroke="#1E196C" stroke-width=".552" stroke-miterlimit="10"/><path d="M528.389 568.17l-4.013-403.864c-.309-30.972-34.031-49.997-60.702-34.246L115.93 335.47c-26.672 15.751-26.285 54.469.69 69.69l351.763 198.454c26.981 15.221 60.316-4.472 60.006-35.444z" stroke="#1B1464" stroke-width=".552" stroke-miterlimit="10"/><path d="M535.803 568.369l-17.352-411.626c-1.203-30.884-35.389-48.888-61.535-32.402l-347.8 220.841c-26.147 16.485-24.64 55.093 2.706 69.497l365.151 190.785c27.35 14.398 60.034-6.211 58.83-37.095z" stroke="#273276" stroke-width=".552" stroke-miterlimit="10"/><path d="M543.218 568.568l-30.69-419.388c-2.098-30.801-36.753-47.778-62.375-30.558L102.298 354.893c-25.622 17.22-23 55.717 4.726 69.299l378.545 183.116c27.721 13.582 59.753-7.944 57.649-38.74z" stroke="#345088" stroke-width=".552" stroke-miterlimit="10"/><path d="M550.632 568.767l-44.029-427.145c-2.992-30.713-38.11-46.663-63.214-28.715L95.485 364.61c-25.098 17.948-21.355 56.341 6.741 69.1l391.939 175.442c28.09 12.765 59.465-9.672 56.467-40.385z" stroke="#406E9A" stroke-width=".552" stroke-miterlimit="10"/><path d="M558.047 568.965l-57.373-434.907c-3.892-30.625-39.474-45.553-64.048-26.871L88.666 374.326c-24.572 18.683-19.714 56.959 8.757 68.907L502.75 611.001c28.471 11.936 59.189-11.411 55.297-42.036z" stroke="#4C8CAC" stroke-width=".552" stroke-miterlimit="10"/><path d="M565.462 569.164l-70.712-442.67c-4.786-30.536-40.832-44.443-64.887-25.026L81.854 384.038c-24.054 19.411-18.07 57.583 10.772 68.707l418.72 160.1c28.836 11.119 58.902-13.145 54.116-43.681z" stroke="#59AABE" stroke-width=".552" stroke-miterlimit="10"/><path d="M572.876 569.362l-84.05-450.432c-5.681-30.448-42.196-43.328-65.726-23.183L75.036 393.754c-23.53 20.145-16.425 58.206 12.787 68.514l432.114 152.426c29.211 10.296 58.62-14.884 52.939-45.332z" stroke="#65C8D0" stroke-width=".552" stroke-miterlimit="10"/><path d="M579.733 567.209L479.364 111.024c-6.548-30.21-43.345-41.998-66.229-21.223L68.251 404.818c-22.884 20.775-14.702 58.538 14.735 67.967L528.24 613.954c29.432 9.435 58.041-16.535 51.493-46.745z" stroke="#54D1D8" stroke-width=".552" stroke-miterlimit="10"/><path d="M586.585 565.063L469.89 103.125c-7.415-29.967-44.487-40.667-66.737-19.262L61.449 415.894c-22.243 21.405-12.974 58.864 16.684 67.427l458.4 129.906c29.663 8.557 57.466-18.197 50.052-48.164z" stroke="#43DAE0" stroke-width=".552" stroke-miterlimit="10"/><path d="M593.442 562.909L460.427 95.219c-8.281-29.725-45.635-39.337-67.238-17.303L54.664 426.957c-21.603 22.034-11.246 59.19 18.633 66.88l471.539 118.65c29.885 7.69 56.887-19.853 48.606-49.578z" stroke="#33E3E8" stroke-width=".552" stroke-miterlimit="10"/><path d="M600.293 560.76L450.953 87.317c-9.148-29.482-46.784-38.006-67.741-15.343L47.868 438.026c-20.958 22.663-9.524 59.52 20.587 66.339L553.14 611.751c30.105 6.824 56.308-21.509 47.154-50.991z" stroke="#22EDEF" stroke-width=".552" stroke-miterlimit="10"/><path d="M607.15 558.608L441.49 79.412c-10.015-29.244-47.932-36.675-68.249-13.383L41.077 449.096c-20.317 23.293-7.795 59.847 22.536 65.793l497.824 96.129c30.332 5.952 55.728-23.165 45.713-52.41z" stroke="#11F6F7" stroke-width=".552" stroke-miterlimit="10"/><path d="M614.007 556.46L432.022 71.516c-10.882-29-49.081-35.344-68.751-11.417L34.287 460.176c-19.671 23.927-6.068 60.177 24.485 65.251l510.969 84.867c30.558 5.074 55.148-24.833 44.266-53.834z" stroke="#0FF" stroke-width=".552" stroke-miterlimit="10"/><path d="M621.598 551.424L420.467 63.538c-11.693-28.61-49.975-33.832-68.906-9.402L29.605 472.266c-18.931 24.435-4.312 60.199 26.312 64.379l523.088 69.756c30.624 4.179 54.287-26.368 42.593-54.977z" stroke="#00D4FF" stroke-width=".552" stroke-miterlimit="10"/><path d="M629.189 546.391L408.911 55.568c-12.504-28.223-50.875-32.325-69.066-7.382L24.917 484.364c-18.191 24.943-2.556 60.222 28.14 63.501l535.206 54.646c30.696 3.285 53.436-27.897 40.926-56.12z" stroke="#0AF" stroke-width=".552" stroke-miterlimit="10"/><path d="M636.786 541.356L397.362 47.596c-13.316-27.836-51.775-30.812-69.221-5.36L20.241 496.46c-17.446 25.452-.8 60.244 29.968 62.629l547.324 39.535c30.762 2.385 52.57-29.431 39.253-57.268z" stroke="#0080FF" stroke-width=".552" stroke-miterlimit="10"/><path d="M644.377 536.32L385.807 39.623c-14.128-27.445-52.675-29.305-69.376-3.346L15.559 508.555c-16.706 25.96.956 60.267 31.795 61.757l559.437 24.425c30.84 1.485 51.72-30.967 37.586-58.417z" stroke="#05F" stroke-width=".552" stroke-miterlimit="10"/><path d="M651.974 531.285L374.257 31.645c-14.94-27.058-53.569-27.797-69.536-1.325L10.878 520.647c-15.961 26.467 2.716 60.293 33.616 60.878l571.555 9.309c30.912.596 50.864-32.491 35.925-59.549z" stroke="#002BFF" stroke-width=".552" stroke-miterlimit="10"/><path d="M659.565 523.352L362.702 20.774c-15.752-26.671-54.47-26.285-69.691.69L6.196 529.845c-15.221 26.975 4.472 60.316 35.444 60.007l583.673-5.803c30.984-.303 50.009-34.025 34.252-60.696z" stroke="#00F" stroke-width=".552" stroke-miterlimit="10"/></svg>